<svg width="1024" height="1024" viewBox="0 0 1024 1024" fill="none" xmlns="http://www.w3.org/2000/svg">
<g clip-path="url(#clip0_1835_130557)">
<rect width="1024" height="1024" fill="#121210"/>
<path fill-rule="evenodd" clip-rule="evenodd" d="M653.353 180.4C593.164 180.4 544.6 229.179 544.6 289.2C544.6 349.221 593.164 398 653.353 398C713.313 398 762.101 349.221 762.101 289.2C762.101 229.179 713.313 180.4 653.353 180.4Z" fill="url(#paint0_linear_1835_130557)"/>
<path fill-rule="evenodd" clip-rule="evenodd" d="M709.036 423.5C779.728 423.5 837.038 480.771 837.038 551.467C837.038 606.242 837.038 666.146 837.038 703.99C837.038 714.176 832.997 723.957 825.792 731.107C818.587 738.325 808.827 742.372 798.638 742.372C727.966 742.372 578.089 742.372 507.418 742.372C497.234 742.372 487.467 738.325 480.265 731.107C473.064 723.957 469.019 714.176 469.019 703.99C469.019 666.146 469.019 606.242 469.019 551.467C469.019 480.771 526.328 423.5 597.023 423.5H709.036Z" fill="url(#paint1_linear_1835_130557)"/>
<path fill-rule="evenodd" clip-rule="evenodd" d="M669.928 423.5V742.372C669.928 742.372 565.728 742.372 507.406 742.372C497.221 742.372 487.454 738.325 480.253 731.107C473.052 723.957 469.006 714.176 469.006 703.99C469.006 666.146 469.006 606.242 469.006 551.467C469.006 517.536 482.492 484.954 506.497 460.939C530.503 436.992 563.061 423.5 597.01 423.5C636.553 423.5 669.928 423.5 669.928 423.5Z" fill="url(#paint2_linear_1835_130557)"/>
<path fill-rule="evenodd" clip-rule="evenodd" d="M371.484 153.701C311.296 153.701 262.732 202.48 262.732 262.501C262.732 322.522 311.296 371.301 371.484 371.301C431.445 371.301 480.232 322.522 480.232 262.501C480.232 202.48 431.445 153.701 371.484 153.701Z" fill="url(#paint3_linear_1835_130557)"/>
<path fill-rule="evenodd" clip-rule="evenodd" d="M427.163 396.811C497.855 396.811 555.165 454.125 555.165 524.818C555.165 623.145 555.165 742.379 555.165 742.379C555.165 742.379 319.842 742.379 225.545 742.379C215.361 742.379 205.594 738.36 198.392 731.122C191.191 723.958 187.146 714.161 187.146 703.999C187.146 660.794 187.146 588.42 187.146 524.818C187.146 454.125 244.455 396.811 315.15 396.811H427.163Z" fill="url(#paint4_linear_1835_130557)"/>
<path fill-rule="evenodd" clip-rule="evenodd" d="M603.729 561.181C598.234 555.679 598.234 546.758 603.729 541.256C609.224 535.776 618.146 535.776 623.641 541.256L641.101 558.713L685.334 514.492C690.829 508.99 699.75 508.99 705.246 514.492C710.741 519.994 710.741 528.915 705.246 534.395L651.057 588.579C645.557 594.081 636.643 594.081 631.145 588.579L603.729 561.181Z" fill="#0CA3C1"/>
<path fill-rule="evenodd" clip-rule="evenodd" d="M321.853 534.427C316.358 528.925 316.358 520.004 321.853 514.502C327.348 509.022 336.27 509.022 341.765 514.502L359.225 531.959L403.458 487.738C408.953 482.236 417.874 482.236 423.37 487.738C428.865 493.24 428.865 502.161 423.37 507.641L369.181 561.825C363.681 567.327 354.767 567.327 349.269 561.825L321.853 534.427Z" fill="#0CA3C1"/>
<path fill-rule="evenodd" clip-rule="evenodd" d="M655.303 670.892V884.987C655.303 904.99 639.071 921.234 619.078 921.234H404.971C384.978 921.234 368.747 904.99 368.747 884.987V670.892C368.747 650.889 384.978 634.705 404.971 634.705H619.078C639.071 634.705 655.303 650.889 655.303 670.892Z" fill="#121210"/>
<path fill-rule="evenodd" clip-rule="evenodd" d="M589.652 704.387C589.652 716.582 579.754 726.478 567.565 726.478H459.517C447.326 726.478 437.429 716.582 437.429 704.387C437.429 692.201 447.326 682.305 459.517 682.305H567.565C579.754 682.305 589.652 692.201 589.652 704.387Z" fill="white"/>
<path fill-rule="evenodd" clip-rule="evenodd" d="M586.685 851.687C586.685 863.883 576.789 873.779 564.597 873.779H456.509C444.318 873.779 434.421 863.883 434.421 851.687C434.421 839.502 444.318 829.605 456.509 829.605H564.597C576.789 829.605 586.685 839.502 586.685 851.687Z" fill="white"/>
<path fill-rule="evenodd" clip-rule="evenodd" d="M562.19 754.098C562.19 766.293 552.292 776.189 540.101 776.189H512.639C500.448 776.189 490.551 766.293 490.551 754.098C490.551 741.912 500.448 732.016 512.639 732.016H540.101C552.292 732.016 562.19 741.912 562.19 754.098Z" fill="white"/>
<path fill-rule="evenodd" clip-rule="evenodd" d="M533.537 802.887C533.537 815.082 523.64 824.978 511.449 824.978H483.987C471.796 824.978 461.898 815.082 461.898 802.887C461.898 790.701 471.796 780.805 483.987 780.805H511.449C523.64 780.805 533.537 790.701 533.537 802.887Z" fill="white"/>
</g>
<defs>
<linearGradient id="paint0_linear_1835_130557" x1="717.415" y1="308.421" x2="717.415" y2="449.221" gradientUnits="userSpaceOnUse">
<stop stop-color="#6ADFF6"/>
<stop offset="0.51" stop-color="#53D0E9"/>
<stop offset="1" stop-color="#0CA3C1"/>
</linearGradient>
<linearGradient id="paint1_linear_1835_130557" x1="512.228" y1="565.228" x2="512.228" y2="766.017" gradientUnits="userSpaceOnUse">
<stop stop-color="#6ADFF6"/>
<stop offset="0.51" stop-color="#53D0E9"/>
<stop offset="1" stop-color="#0CA3C1"/>
</linearGradient>
<linearGradient id="paint2_linear_1835_130557" x1="521.11" y1="582.902" x2="624.499" y2="582.902" gradientUnits="userSpaceOnUse">
<stop stop-color="#0F839A"/>
<stop offset="0.58" stop-color="#0D99B5" stop-opacity="0.32"/>
<stop offset="1" stop-color="#0CA3C1" stop-opacity="0"/>
</linearGradient>
<linearGradient id="paint3_linear_1835_130557" x1="435.547" y1="281.722" x2="435.547" y2="422.522" gradientUnits="userSpaceOnUse">
<stop stop-color="#6ADFF6"/>
<stop offset="0.51" stop-color="#53D0E9"/>
<stop offset="1" stop-color="#0CA3C1"/>
</linearGradient>
<linearGradient id="paint4_linear_1835_130557" x1="230.355" y1="550.405" x2="230.355" y2="768.004" gradientUnits="userSpaceOnUse">
<stop stop-color="#6ADFF6"/>
<stop offset="0.51" stop-color="#53D0E9"/>
<stop offset="1" stop-color="#0CA3C1"/>
</linearGradient>
<clipPath id="clip0_1835_130557">
<rect width="1024" height="1024" rx="230" fill="white"/>
</clipPath>
</defs>
</svg>
